# xmcd
#
# Track frame offsets:
#	150
#	17382
#	36795
#	55998
#	71572
#	84794
#	96874
#	108695
#	121530
#	139722
#	155923
#	170424
#	182325
#	195032
#	210902
#	223598
#	233495
#	242796
#	258752
#	273309
#
# Disc length: 3810 seconds
#
# Revision: 0
# Processed by: cddbd v1.5.1PL2 Copyright (c) Steve Scherf et al.
# Submitted via: dBpowerAMP V4.0
#
DISCID=fb0ee014
DTITLE=Tina Turner - Stand By Me
DYEAR=19
DGENRE=R&B
TTITLE0=Stand By Me
TTITLE1=I Idolize You
TTITLE2=Something
TTITLE3=Why I Sing The Blues
TTITLE4=Take The Time
TTITLE5=Proud Mary
TTITLE6=It's Gonna Work Out Fine
TTITLE7=It's All Over Now
TTITLE8=Sugar, Sugar
TTITLE9=I Can't Believe What You Say
TTITLE10=Baby, Baby Get It On
TTITLE11=A Fool In Love
TTITLE12=I Know
TTITLE13=Living For The City
TTITLE14=Shake
TTITLE15=You'll Always Be My Baby
TTITLE16=Shake, Rattle And Roll
TTITLE17=I Can't Stop Loving You
TTITLE18=I Wish It Would Rain
TTITLE19=Remember Baby
EXTD=
EXTT0=
EXTT1=
EXTT2=
EXTT3=
EXTT4=
EXTT5=
EXTT6=
EXTT7=
EXTT8=
EXTT9=
EXTT10=
EXTT11=
EXTT12=
EXTT13=
EXTT14=
EXTT15=
EXTT16=
EXTT17=
EXTT18=
EXTT19=
PLAYORDER=
